<svg width="25" height="19" viewBox="0 0 25 19" fill="none" xmlns="http://www.w3.org/2000/svg">
<path d="M7.685 10.148H9.485L8.585 7.54801L7.685 10.148ZM17.173 9.36701C16.9414 9.36701 16.715 9.43568 16.5224 9.56435C16.3299 9.69303 16.1798 9.87591 16.0911 10.0899C16.0025 10.3039 15.9793 10.5393 16.0245 10.7665C16.0697 10.9936 16.1812 11.2023 16.345 11.366C16.5087 11.5298 16.7174 11.6413 16.9445 11.6865C17.1717 11.7317 17.4072 11.7085 17.6211 11.6199C17.8351 11.5312 18.018 11.3811 18.1467 11.1886C18.2753 10.996 18.344 10.7696 18.344 10.538C18.3437 10.2275 18.2203 9.92982 18.0007 9.71028C17.7812 9.49073 17.4835 9.36727 17.173 9.36701ZM22.637 5.33781e-06H2.342C1.72086 5.33781e-06 1.12517 0.246751 0.685956 0.685961C0.246746 1.12517 0 1.72087 0 2.34201L0 16.392C0 17.0131 0.246746 17.6088 0.685956 18.048C1.12517 18.4873 1.72086 18.734 2.342 18.734H22.642C23.2631 18.734 23.8588 18.4873 24.298 18.048C24.7373 17.6088 24.984 17.0131 24.984 16.392V2.34201C24.984 2.03403 24.9233 1.72908 24.8052 1.4446C24.6872 1.16013 24.5143 0.901731 24.2963 0.684191C24.0783 0.466651 23.8195 0.294244 23.5348 0.176842C23.2501 0.0594402 22.945 -0.000652171 22.637 5.33781e-06ZM12.225 14.05H11.4C11.2378 14.05 11.0797 13.9995 10.9475 13.9056C10.8153 13.8117 10.7155 13.6791 10.662 13.526L10.302 12.489H6.872L6.512 13.526C6.45863 13.6792 6.35889 13.8119 6.22665 13.9058C6.0944 13.9997 5.93619 14.0501 5.774 14.05H4.948C4.82343 14.05 4.70066 14.0203 4.58994 13.9632C4.47923 13.9061 4.38377 13.8233 4.31154 13.7218C4.23931 13.6204 4.19241 13.5031 4.17474 13.3798C4.15708 13.2564 4.16917 13.1307 4.21 13.013L6.83 5.47001C6.90994 5.24038 7.05937 5.04134 7.25756 4.90049C7.45575 4.75965 7.69286 4.68398 7.936 4.68401H9.236C9.47929 4.68391 9.71657 4.75966 9.9148 4.90072C10.113 5.04177 10.2624 5.24112 10.342 5.471L12.961 13.014C13.0016 13.1315 13.0135 13.2569 12.9959 13.38C12.9782 13.503 12.9315 13.62 12.8595 13.7213C12.7875 13.8226 12.6924 13.9053 12.582 13.9625C12.4717 14.0197 12.3493 14.0497 12.225 14.05ZM20.685 13.269C20.6851 13.3716 20.665 13.4732 20.6258 13.568C20.5866 13.6629 20.5291 13.749 20.4565 13.8216C20.384 13.8941 20.2978 13.9516 20.203 13.9908C20.1082 14.03 20.0066 14.0501 19.904 14.05H19.123C19.0114 14.049 18.9013 14.0237 18.8005 13.9758C18.6996 13.928 18.6104 13.8588 18.539 13.773C18.0113 14.0043 17.4349 14.1026 16.8604 14.0593C16.2859 14.016 15.7308 13.8324 15.2437 13.5246C14.7567 13.2168 14.3526 12.7943 14.0668 12.294C13.7811 11.7937 13.6225 11.2309 13.6048 10.655C13.5872 10.0791 13.7111 9.50774 13.9657 8.99089C14.2203 8.47405 14.5978 8.02756 15.0651 7.69056C15.5324 7.35356 16.0753 7.13635 16.6461 7.05797C17.2168 6.9796 17.7982 7.04244 18.339 7.24101V5.464C18.3389 5.36141 18.359 5.25979 18.3982 5.16497C18.4374 5.07016 18.4949 4.98401 18.5675 4.91146C18.64 4.83891 18.7262 4.78139 18.821 4.74219C18.9158 4.70298 19.0174 4.68287 19.12 4.683H19.9C20.0026 4.68287 20.1042 4.70298 20.199 4.74219C20.2938 4.78139 20.38 4.83891 20.4525 4.91146C20.5251 4.98401 20.5826 5.07016 20.6218 5.16497C20.661 5.25979 20.6811 5.36141 20.681 5.464L20.685 13.269Z" fill="black"/>
</svg>
