<svg width="32" height="16" viewBox="0 0 32 16" fill="none" xmlns="http://www.w3.org/2000/svg">
<path d="M9.42599 10.555H30.656C30.7668 10.555 30.8766 10.5331 30.979 10.4907C31.0814 10.4483 31.1744 10.3861 31.2528 10.3078C31.3312 10.2294 31.3933 10.1363 31.4357 10.0339C31.4782 9.93155 31.5 9.8218 31.5 9.71096V5.77296C31.5 5.66212 31.4782 5.55237 31.4357 5.44997C31.3933 5.34758 31.3312 5.25453 31.2528 5.17616C31.1744 5.09779 31.0814 5.03562 30.979 4.9932C30.8766 4.95079 30.7668 4.92896 30.656 4.92896H9.42599V1.69096C9.42576 1.35728 9.32663 1.03115 9.14114 0.75378C8.95564 0.476409 8.6921 0.260238 8.3838 0.132576C8.07551 0.00491303 7.73629 -0.0285128 7.40901 0.0365205C7.08173 0.101554 6.78106 0.262128 6.54499 0.497959L0.493993 6.54896C0.337307 6.70562 0.213016 6.8916 0.128216 7.0963C0.043417 7.301 -0.000228882 7.52039 -0.000228882 7.74196C-0.000228882 7.96353 0.043417 8.18292 0.128216 8.38762C0.213016 8.59231 0.337307 8.7783 0.493993 8.93496L6.54499 14.986C6.78106 15.2218 7.08173 15.3824 7.40901 15.4474C7.73629 15.5124 8.07551 15.479 8.3838 15.3513C8.6921 15.2237 8.95564 15.0075 9.14114 14.7301C9.32663 14.4528 9.42576 14.1266 9.42599 13.793V10.555Z" fill="black"/>
</svg>
