<svg width="19" height="19" viewBox="0 0 19 19" fill="none" xmlns="http://www.w3.org/2000/svg">
<path d="M9.439 5.002L11.247 11.774H7.632L9.439 5.002ZM18.878 2.023V16.856C18.878 17.3925 18.6649 17.9071 18.2855 18.2865C17.9061 18.6659 17.3915 18.879 16.855 18.879H2.023C1.48647 18.879 0.971909 18.6659 0.592523 18.2865C0.213137 17.9071 0 17.3925 0 16.856L0 2.023C0 1.48647 0.213137 0.971909 0.592523 0.592523C0.971909 0.213137 1.48647 0 2.023 0H16.856C17.3925 0 17.9071 0.213137 18.2865 0.592523C18.6659 0.971909 18.879 1.48647 18.879 2.023H18.878ZM16.127 15.731L12.145 3.144H6.734L2.752 15.731H6.574L11.281 11.871L12.301 15.731H16.127Z" fill="black"/>
</svg>
