<svg width="17" height="17" viewBox="0 0 17 17" fill="none" xmlns="http://www.w3.org/2000/svg">
<mask id="mask0_981_1983" style="mask-type:alpha" maskUnits="userSpaceOnUse" x="0" y="0" width="17" height="17">
<rect width="17" height="17" fill="#C4C4C4"/>
</mask>
<g mask="url(#mask0_981_1983)">
<path d="M14.3975 0.670068L8.55635 6.51126L2.71515 0.670068C2.18248 0.137399 1.31084 0.137399 0.778174 0.670068C0.245505 1.20274 0.245505 2.07438 0.778174 2.60705L6.61937 8.44824L0.778174 14.2894C0.245505 14.8221 0.245505 15.6937 0.778174 16.2264C1.04451 16.4928 1.39558 16.6259 1.74666 16.6259C2.09774 16.6259 2.44882 16.4928 2.71515 16.2264L8.55635 10.3852L14.3975 16.2264C14.6639 16.4928 15.015 16.6259 15.366 16.6259C15.7171 16.6259 16.0682 16.4928 16.3345 16.2264C16.8672 15.6937 16.8672 14.8221 16.3345 14.2894L10.4933 8.44824L16.3345 2.60705C16.8672 2.07438 16.8672 1.20274 16.3345 0.670068C15.8019 0.137399 14.9302 0.137399 14.3975 0.670068Z" fill="black"/>
</g>
</svg>
