<svg width="28" height="29" viewBox="0 0 28 29" fill="none" xmlns="http://www.w3.org/2000/svg">
<path opacity="0.26" d="M12.5508 0.0504894H12.8943C12.8943 0.0771073 12.8953 0.130855 12.8958 0.157473C12.7781 0.157985 12.6609 0.157985 12.5436 0.159009C12.5452 0.131879 12.5493 0.0776192 12.5508 0.0504894Z" fill="#3A230C"/>
<path opacity="0.26" d="M27.8915 12.6384C27.9186 12.641 27.9729 12.6456 28 12.6482V12.9919C27.9734 12.9924 27.9196 12.9935 27.893 12.994C27.892 12.8753 27.892 12.7566 27.8915 12.6384Z" fill="#3A230C"/>
<path opacity="0.5" d="M12.8943 0.0504894H13.2092C13.2092 0.0771073 13.2097 0.130343 13.2102 0.156961C13.1052 0.156961 13.0003 0.156961 12.8959 0.157473C12.8954 0.130855 12.8943 0.0771073 12.8943 0.0504894Z" fill="#724519"/>
<path opacity="0.5" d="M14.7524 0.0504894H15.1906C15.1937 0.0776192 15.1993 0.131367 15.2024 0.158497C15.0693 0.157985 14.9362 0.157473 14.8031 0.15389C14.7903 0.127784 14.7652 0.0760836 14.7524 0.0504894Z" fill="#724519"/>
<path opacity="0.5" d="M27.8929 12.994C27.9196 12.9935 27.9733 12.9924 27.9999 12.9919V13.3084C27.9733 13.3084 27.9201 13.3089 27.8935 13.3094C27.8935 13.2041 27.8929 13.0993 27.8929 12.994Z" fill="#724519"/>
<path opacity="0.5" d="M0 13.2175C0.0271298 13.2144 0.0808774 13.2077 0.107495 13.2046C0.10596 13.7857 0.105448 14.3673 0.108007 14.9489C0.0808774 14.9479 0.0271298 14.9458 0 14.9453V13.2175Z" fill="#724519"/>
<path opacity="0.5" d="M27.8966 14.8569C27.9222 14.8436 27.9739 14.8174 28 14.804V15.2058C27.9728 15.2063 27.9191 15.2068 27.892 15.2073C27.8925 15.0902 27.893 14.9735 27.8966 14.8569Z" fill="#724519"/>
<path opacity="0.75" d="M13.2091 0.0504894H14.7524C14.7652 0.0760836 14.7903 0.127784 14.8031 0.15389C14.2723 0.159009 13.741 0.159009 13.2101 0.156961C13.2096 0.130343 13.2091 0.0771073 13.2091 0.0504894Z" fill="#AA6824"/>
<path opacity="0.75" d="M27.8935 13.3094C27.9201 13.3089 27.9734 13.3084 28 13.3084V14.804C27.9739 14.8174 27.9222 14.8436 27.8966 14.8569C27.891 14.3411 27.8915 13.8253 27.8935 13.3094Z" fill="#AA6824"/>
<path opacity="0.75" d="M11.2507 26.2761C11.3925 26.2822 11.5343 26.2924 11.675 26.3098C11.5824 26.3231 11.4892 26.337 11.3966 26.3482C11.3464 26.3257 11.2978 26.3022 11.2507 26.2761Z" fill="#AA6824"/>
<path opacity="0.25" d="M15.1907 0.0504894H15.4963C15.4993 0.0776192 15.5055 0.131879 15.5086 0.159009C15.4067 0.158497 15.3043 0.159009 15.2024 0.158497C15.1994 0.131367 15.1937 0.0776192 15.1907 0.0504894Z" fill="#37220C"/>
<path opacity="0.22" d="M11.6458 0.265479C11.7405 0.201494 11.8521 0.176924 11.9663 0.179995C11.8772 0.259337 11.7595 0.268551 11.6458 0.265479Z" fill="#311D0A"/>
<path d="M11.9663 0.180093C12.1582 0.171873 12.3507 0.160056 12.5437 0.159028C12.6609 0.158001 12.7781 0.158001 12.8959 0.157487C13.0003 0.156973 13.1052 0.156973 13.2102 0.156973C13.741 0.159028 14.2723 0.159028 14.8031 0.153891C14.9362 0.157487 15.0693 0.158001 15.2024 0.158515C15.3043 0.159028 15.4066 0.158515 15.5085 0.159028C15.8192 0.140019 16.1187 0.222222 16.4227 0.267948C16.5881 0.333711 16.7565 0.392281 16.932 0.424649C17.2161 0.481164 17.4936 0.57878 17.7838 0.597276C17.8432 0.600359 17.9026 0.6019 17.9625 0.602414C17.9517 0.682049 17.9896 0.71904 18.0756 0.712361C18.1867 0.715958 18.2978 0.728288 18.4099 0.730857C18.3996 0.81563 18.4385 0.850052 18.5261 0.833612C18.5501 0.830015 18.5982 0.822822 18.6223 0.818712C18.6243 0.900916 18.6689 0.933798 18.7554 0.916843C19.106 1.00162 19.4311 1.16448 19.7592 1.31039C20.8372 1.78409 21.8384 2.42323 22.7614 3.1533C23.0946 3.45026 23.455 3.71742 23.7565 4.04932C25.3464 5.58807 26.5611 7.51934 27.2521 9.6253C27.2839 9.75477 27.3161 9.88424 27.3509 10.0132C27.3437 10.0939 27.3304 10.1869 27.419 10.2269C27.4988 10.6189 27.6186 11.0022 27.6765 11.3994C27.7492 11.7148 27.7579 12.0462 27.8858 12.3468C27.8884 12.4439 27.8904 12.541 27.8915 12.6381C27.892 12.7562 27.892 12.8749 27.893 12.9936C27.893 13.0989 27.8935 13.2037 27.8935 13.3091C27.8915 13.8249 27.8909 14.3407 27.8966 14.8565C27.893 14.9732 27.8925 15.0898 27.892 15.2069C27.8915 15.3107 27.8909 15.415 27.8915 15.5193C27.8909 15.5953 27.8909 15.6714 27.8904 15.7474C27.7604 16.085 27.765 16.4523 27.676 16.8007C27.6319 17.204 27.4676 17.5831 27.4374 17.988C27.356 18.2315 27.2782 18.4771 27.2137 18.7258C27.1334 18.7473 27.1057 18.7982 27.1313 18.8784C27.055 19.164 26.9353 19.4363 26.8109 19.704C26.0487 21.4924 24.8806 23.0949 23.4683 24.4209C23.1458 24.6789 22.855 24.9758 22.5177 25.2158C21.667 25.8477 20.7707 26.4355 19.7904 26.8449C19.7116 26.8162 19.6588 26.8418 19.6317 26.9215C19.2488 27.1049 18.8526 27.259 18.4493 27.389C18.3694 27.3582 18.3167 27.3823 18.2901 27.462C18.0838 27.4913 17.8908 27.574 17.6866 27.613C17.0902 27.6957 16.5046 27.8427 15.9124 27.9495C15.8484 27.9665 15.7921 28.0025 15.7348 28.0343C15.5571 28.0323 15.38 28.0441 15.2024 28.0446C15.0831 28.0446 14.9633 28.0446 14.8441 28.0451C14.2984 28.0472 13.7522 28.0477 13.2061 28.0451C13.0699 28.0441 12.9342 28.0446 12.7986 28.0451C12.4229 28.0775 12.0656 27.9418 11.6934 27.9285C11.6458 27.909 11.5977 27.8905 11.5496 27.8735C11.2425 27.7892 10.9287 27.7111 10.6108 27.687C10.5919 27.5858 10.4777 27.5616 10.3917 27.5786C10.3052 27.5812 10.2187 27.5807 10.1322 27.5801C10.1107 27.5796 10.0672 27.5796 10.0457 27.5791C10.0534 27.4938 10.014 27.4604 9.92745 27.4794C9.90237 27.4841 9.85271 27.4923 9.82814 27.4969C9.82917 27.4193 9.78822 27.3864 9.7058 27.3993C9.49849 27.3926 9.31012 27.2986 9.11919 27.2282C7.38442 26.5624 5.7597 25.58 4.42318 24.2802C4.11861 24.0541 3.8985 23.7443 3.63744 23.4741C2.79437 22.5606 2.09411 21.5166 1.53974 20.4038C1.5464 20.3154 1.50903 20.2743 1.42662 20.2815C1.42866 20.2214 1.43071 20.1613 1.43327 20.1017C1.443 20.023 1.40768 19.9794 1.32731 19.9712C1.06011 19.4004 0.82976 18.81 0.658792 18.2027C0.685409 18.1128 0.65572 18.0661 0.569724 18.0625C0.570236 18.0419 0.570236 18.0019 0.570236 17.9813C0.570236 17.895 0.570236 17.8092 0.573307 17.7234C0.589687 17.6366 0.565117 17.5225 0.464786 17.5035C0.440727 17.1844 0.363945 16.8695 0.279484 16.5618C0.261056 16.5129 0.242629 16.4647 0.223177 16.4169C0.209356 16.0439 0.0742192 15.6853 0.108003 15.3087C0.108003 15.1884 0.108515 15.0682 0.108003 14.9485C0.105444 14.3669 0.105956 13.7853 0.107492 13.2042C0.108003 13.1005 0.108003 12.9967 0.108515 12.8934C0.108003 12.7151 0.119265 12.5374 0.117217 12.3596C0.149466 12.3021 0.185298 12.245 0.203725 12.1813C0.27846 11.8664 0.362921 11.5473 0.337839 11.2206C0.338351 11.2021 0.339886 11.1641 0.340398 11.1456C0.470928 11.1291 0.478095 10.9801 0.442263 10.8815C0.453012 10.8193 0.464274 10.7577 0.475535 10.696C0.576379 10.6446 0.554368 10.5203 0.551808 10.4273C0.556415 10.359 0.559486 10.2912 0.56051 10.2228C0.638828 10.2269 0.669541 10.1874 0.652649 10.1036C0.639852 9.91712 0.723801 9.74707 0.779084 9.57392C0.977694 9.21069 1.11949 8.81662 1.22749 8.41691C1.83151 7.06979 2.63159 5.80899 3.62106 4.71363C5.34149 2.78492 7.60862 1.3515 10.0856 0.627589C10.5417 0.580321 10.9707 0.384061 11.4334 0.373786C11.4436 0.348097 11.4646 0.29672 11.4749 0.271031C11.5317 0.26949 11.5885 0.267435 11.6458 0.265893C11.7595 0.268976 11.8772 0.259728 11.9663 0.180093ZM12.3425 1.59091C12.342 1.61506 12.342 1.66284 12.342 1.68648C12.1572 1.706 11.9678 1.67517 11.7861 1.72552C11.3684 1.83855 10.9394 1.9074 10.5243 2.03276C10.448 2.05177 10.3871 2.10263 10.3262 2.14887C9.57323 2.36568 8.84994 2.68628 8.15787 3.05414C8.06727 3.01201 8.02427 3.04078 8.0299 3.14097C7.91524 3.14251 7.83436 3.23704 7.73864 3.28739C6.59868 3.95067 5.57542 4.80765 4.69857 5.79409C4.63919 5.8691 4.5491 5.92511 4.51531 6.01707C4.4155 6.00423 4.38427 6.04481 4.42062 6.13935C4.23378 6.3428 4.05974 6.5591 3.89952 6.78465C3.47466 7.40529 3.05696 8.03826 2.75751 8.73185C2.4514 9.37612 2.18574 10.044 2.01067 10.7366C1.80592 11.0937 1.80694 11.5222 1.69075 11.9101C1.61908 12.1258 1.64468 12.3545 1.63342 12.5774C1.4778 12.6232 1.56175 12.8122 1.56278 12.9263C1.50493 13.2109 1.53104 13.5074 1.55203 13.7956C1.52746 14.2313 1.5551 14.6706 1.56482 15.1067C1.64468 15.3796 1.64365 15.6647 1.67385 15.9447C1.77265 16.2026 1.7793 16.4796 1.77367 16.7529C1.77828 16.7215 1.78698 16.6594 1.79159 16.628C1.80797 16.7092 1.8438 16.7842 1.87707 16.8597C1.88885 17.1757 2.05111 17.4639 2.10179 17.7753C2.65974 19.6095 3.66354 21.3044 4.97959 22.6936C5.20584 22.9814 5.50785 23.193 5.7597 23.4556C6.40774 24.0212 7.10442 24.5335 7.85279 24.9584C7.99253 25.0313 8.11846 25.1526 8.28021 25.1705C8.2756 25.2697 8.3186 25.298 8.40972 25.2563C8.49981 25.3118 8.59195 25.3858 8.70507 25.375C8.68869 25.4665 8.72555 25.4973 8.81513 25.4675C9.07772 25.5482 9.3137 25.6972 9.57681 25.7778C9.76109 25.8302 9.93103 25.9458 10.1271 25.9422C10.1215 26.0398 10.1629 26.0681 10.253 26.027C10.5944 26.0738 10.9077 26.2428 11.2507 26.2757C11.2978 26.3019 11.3464 26.3255 11.3966 26.3481L11.3515 26.3543C11.5583 26.3856 11.7723 26.3615 11.976 26.417C12.2908 26.5171 12.6251 26.5099 12.9511 26.5341C13.3463 26.5248 13.7328 26.6312 14.1285 26.6045C14.4341 26.5829 14.7417 26.6122 15.0463 26.5767C15.248 26.5171 15.4578 26.495 15.6677 26.4925C15.8781 26.4961 16.068 26.3805 16.2779 26.382C16.4739 26.3902 16.6515 26.2988 16.8414 26.2674C17.1496 26.213 17.4403 26.0887 17.748 26.0296C17.8381 26.0686 17.8795 26.0398 17.8724 25.9422C18.0096 25.9525 18.137 25.9027 18.2548 25.8379C18.4708 25.8343 18.6653 25.7285 18.8629 25.653C19.0216 25.5805 19.2007 25.5281 19.319 25.391C19.6235 25.2491 19.9337 25.1145 20.2153 24.9291C21.1837 24.3742 22.0754 23.6857 22.8509 22.8817C23.0705 22.6592 23.3055 22.4419 23.4857 22.1876C23.585 22.1989 23.6162 22.1578 23.5794 22.0638C24.1194 21.4796 24.5361 20.7942 24.9374 20.1099C25.3141 19.3788 25.6535 18.6251 25.9059 17.8416C26.0594 17.6453 26.0768 17.3879 26.1413 17.1557C26.2012 16.9147 26.2887 16.6691 26.2304 16.4174C26.2606 16.421 26.3205 16.4287 26.3507 16.4323C26.3527 16.3018 26.3502 16.1703 26.3277 16.0418C26.3512 15.9576 26.3476 15.8687 26.3497 15.7824C26.4787 15.6832 26.4392 15.5054 26.4587 15.3631C26.4761 14.5735 26.452 13.7833 26.471 12.9941C26.4623 12.9001 26.4566 12.8056 26.4346 12.7141C26.4449 12.6221 26.4551 12.5307 26.4648 12.4387C26.4408 12.4387 26.3927 12.4387 26.3686 12.4387C26.3451 12.1901 26.4126 11.9044 26.2289 11.7009C26.2278 11.6434 26.2191 11.5869 26.2033 11.5324C26.1168 11.257 26.1116 10.9616 25.9919 10.696C26.0415 10.6071 26.0169 10.5624 25.9192 10.5619C25.9263 10.453 25.9146 10.3425 25.8874 10.2367C25.9212 10.1458 25.8905 10.1057 25.7953 10.1165C25.8004 9.93819 25.6985 9.78354 25.6545 9.61605C25.2164 8.52223 24.6558 7.47362 23.9397 6.5365C23.7421 6.32122 23.5911 6.06793 23.3854 5.85934C22.9805 5.4288 22.5617 5.01059 22.1312 4.60471C21.9592 4.45109 21.7637 4.32624 21.5912 4.17314C21.0604 3.74773 20.4773 3.39477 19.8882 3.05722C19.3625 2.80496 18.8444 2.52855 18.2911 2.33948C18.1897 2.29632 18.0843 2.25574 17.9722 2.26344C17.9794 2.16583 17.9379 2.13705 17.8483 2.17713C17.3042 2.04406 16.7682 1.85653 16.2082 1.81029C16.2564 1.78461 16.3035 1.75583 16.3495 1.72501C16.1827 1.69881 16.0122 1.6875 15.8443 1.71422C15.7895 1.706 15.7348 1.70343 15.68 1.70549C15.6457 1.58218 15.5054 1.59862 15.4066 1.57293C15.3242 1.59194 15.2418 1.61095 15.1599 1.63099C14.9736 1.58834 14.7786 1.60684 14.5892 1.59759C14.1372 1.60427 13.6842 1.58423 13.2332 1.60633C13.0284 1.58475 12.8175 1.56522 12.6159 1.6166C12.5242 1.60787 12.4331 1.59913 12.3425 1.59091Z" fill="#E58C31"/>
<path opacity="0.47" d="M11.0418 0.345612C11.1841 0.311189 11.3275 0.275225 11.4749 0.270601C11.4646 0.29629 11.4437 0.347667 11.4334 0.373356C10.9707 0.383631 10.5417 0.57989 10.0856 0.627157C10.3856 0.476624 10.7188 0.423706 11.0418 0.345612Z" fill="#6C4116"/>
<path opacity="0.47" d="M26.3707 12.996C26.3957 12.9955 26.4459 12.9945 26.471 12.9945C26.4521 13.7837 26.4761 14.5738 26.4587 15.3635C26.4393 15.5058 26.4787 15.6836 26.3497 15.7827C26.32 15.4164 26.3947 15.0558 26.4398 14.6946C26.4531 14.1279 26.4766 13.556 26.3707 12.996Z" fill="#6C4116"/>
<path opacity="0.62" d="M16.4227 0.267527C16.651 0.277802 16.8706 0.343565 17.0948 0.381071C17.3303 0.430907 17.5765 0.466357 17.7838 0.596856C17.4936 0.57836 17.2161 0.480743 16.9321 0.424227C16.7565 0.39186 16.5881 0.33329 16.4227 0.267527Z" fill="#8E571E"/>
<path opacity="0.59" d="M17.9625 0.602793C18.048 0.595626 18.0853 0.63197 18.0756 0.712336C17.9896 0.71899 17.9517 0.682134 17.9625 0.602793Z" fill="#87531D"/>
<path opacity="0.27" d="M18.4099 0.731239C18.4913 0.722537 18.5302 0.756833 18.5261 0.833615C18.4385 0.849996 18.3996 0.8157 18.4099 0.731239Z" fill="#3E260D"/>
<path opacity="0.53" d="M18.6223 0.819079C18.7006 0.802698 18.7447 0.834947 18.7554 0.916848C18.6689 0.93374 18.6244 0.90098 18.6223 0.819079Z" fill="#794A1B"/>
<path opacity="0.77" d="M12.3425 1.5913C12.4331 1.59949 12.5242 1.60819 12.6158 1.61689C12.5247 1.64095 12.4341 1.66757 12.342 1.68651C12.342 1.66296 12.342 1.61536 12.3425 1.5913Z" fill="#AE6A25"/>
<path opacity="0.58" d="M12.6159 1.61698C12.8176 1.5656 13.0285 1.58513 13.2332 1.6067C12.9097 1.70021 12.5724 1.69764 12.2417 1.7372C11.9069 1.81581 11.564 1.84561 11.2302 1.92576C10.9251 1.98587 10.6339 2.10044 10.3262 2.14925C10.3871 2.10301 10.4481 2.05215 10.5243 2.03314C10.9395 1.90778 11.3684 1.83893 11.7861 1.7259C11.9678 1.67555 12.1572 1.70638 12.342 1.68685C12.4342 1.66784 12.5248 1.64113 12.6159 1.61698Z" fill="#83501C"/>
<path opacity="0.54" d="M15.1599 1.63116C15.2418 1.61119 15.3242 1.59225 15.4066 1.57331C15.4194 1.60761 15.4455 1.6762 15.4583 1.7105C15.3565 1.69361 15.2577 1.66341 15.1599 1.63116Z" fill="#7A4A1A"/>
<path opacity="0.77" d="M15.4066 1.57331C15.5054 1.59891 15.6457 1.58253 15.68 1.70538C15.6057 1.70743 15.532 1.70896 15.4583 1.7105C15.4455 1.6762 15.4194 1.60761 15.4066 1.57331Z" fill="#AF6B25"/>
<path opacity="0.58" d="M15.8443 1.71455C16.0122 1.68793 16.1827 1.69919 16.3495 1.7253C16.3035 1.75601 16.2564 1.78467 16.2082 1.81027C16.0823 1.79849 15.9641 1.75089 15.8443 1.71455Z" fill="#84501C"/>
<path opacity="0.56" d="M17.8483 2.17745C17.9379 2.13752 17.9794 2.16618 17.9722 2.26344C17.9041 2.27317 17.8627 2.2445 17.8483 2.17745Z" fill="#804F1C"/>
<path opacity="0.56" d="M25.7953 10.1168C25.8905 10.1061 25.9212 10.146 25.8874 10.2366C25.8178 10.2259 25.7871 10.1859 25.7953 10.1168Z" fill="#804F1C"/>
<path opacity="0.47" d="M8.02991 3.14096C8.02428 3.04114 8.06728 3.01248 8.15788 3.05445C8.13843 3.11742 8.09543 3.14659 8.02991 3.14096Z" fill="#6B4216"/>
<path opacity="0.23" d="M8.10107 5.8902C8.28689 5.74636 8.53669 5.81188 8.75372 5.79704C8.87658 5.81649 9.07826 5.75762 9.12279 5.91528L9.08645 5.91375C8.77932 5.89173 8.47117 5.90351 8.16352 5.89276L8.10107 5.8902Z" fill="#33200B"/>
<path opacity="0.46" d="M8.1635 5.89312C8.47114 5.90391 8.7793 5.89209 9.08643 5.91418C9.12328 6.38891 9.09564 6.86569 9.10076 7.34145C9.10639 7.39693 9.09359 7.46989 9.15195 7.50329C9.41864 7.52281 9.68994 7.4853 9.95355 7.54593C9.68482 7.57778 9.41045 7.59217 9.14069 7.55929C9.03677 7.54798 9.04496 7.42314 9.03985 7.34556C9.03473 6.87186 9.04855 6.39816 9.03677 5.92446C8.77776 5.91624 8.51926 5.91624 8.26076 5.92497C8.24182 6.42642 8.27202 6.92889 8.25001 7.42982C8.24796 7.58446 8.0473 7.57008 7.93879 7.5747C7.48372 7.5598 7.0261 7.59782 6.57257 7.54644C7.09367 7.45191 7.62654 7.55107 8.1507 7.48993C8.1507 6.95817 8.12665 6.42436 8.1635 5.89312Z" fill="#683F16"/>
<path opacity="0.46" d="M27.6759 16.801C27.765 16.4527 27.7604 16.0854 27.8904 15.7478C27.896 15.885 27.8955 16.0227 27.8894 16.1599C27.7839 16.2061 27.81 16.3284 27.8172 16.4198C27.7901 16.8113 27.6739 17.1869 27.5838 17.5666C27.5495 17.712 27.4932 17.8502 27.4374 17.9884C27.4676 17.5835 27.6319 17.2044 27.6759 16.801Z" fill="#683F16"/>
<path d="M9.08642 5.91418L9.12276 5.91572L9.13914 5.91675C9.12225 6.43669 9.13146 6.95714 9.13453 7.47708C9.39764 7.48376 9.66126 7.48222 9.92488 7.47811C9.92386 6.95046 9.92386 6.42282 9.92488 5.89569C10.2156 5.89415 10.5069 5.89466 10.7976 5.89466C10.8115 6.43977 10.7838 6.9854 10.8135 7.53C11.308 7.52024 11.803 7.53 12.298 7.52486C12.8708 8.31094 13.4154 9.11807 13.9764 9.91237C14.2467 9.64366 14.4238 9.29995 14.649 8.99477C15.0156 8.51644 15.3211 7.99394 15.6999 7.52435C16.1954 7.53051 16.6909 7.51972 17.1864 7.53C17.2161 6.9854 17.1885 6.43977 17.2023 5.89466C17.4961 5.89466 17.7905 5.89415 18.0843 5.89569C18.0884 6.42076 18.0899 6.94635 18.0838 7.47194C18.3735 7.48479 18.6643 7.48633 18.954 7.47143C18.9545 6.94687 18.9535 6.42179 18.9545 5.89671C19.2468 5.89466 19.5396 5.88901 19.8319 5.90237C19.838 6.42898 19.8288 6.9556 19.837 7.48171C20.3878 7.47914 20.9391 7.48325 21.4904 7.47914C21.4852 7.67283 21.3281 7.80435 21.2319 7.95746C20.2055 9.40887 19.1992 10.8757 18.1693 12.3235C18.1022 12.3317 18.0679 12.3697 18.0664 12.4376C17.8872 12.7967 17.6128 13.105 17.3912 13.4404C17.2612 13.6439 17.1056 13.8299 16.9832 14.038C16.9157 14.1695 17.0303 14.28 17.1005 14.3801C17.3047 14.6401 17.4664 14.9319 17.6748 15.1898C17.8652 15.4329 18.0049 15.7124 18.2025 15.9513C19.0927 17.2146 19.9675 18.4883 20.8638 19.7475C20.8961 19.7866 20.9176 19.8308 20.9298 19.8791C20.9283 19.9464 20.9606 19.9869 21.0261 20.0013C21.194 20.2418 21.4079 20.4601 21.519 20.735C20.9621 20.7566 20.4041 20.7288 19.8472 20.7494C19.816 20.752 19.754 20.7566 19.7228 20.7586C19.7233 21.1969 19.7443 21.6356 19.7105 22.0729C19.4613 22.0729 19.2115 22.0611 18.9637 22.0893C18.9417 21.6423 18.9611 21.1943 18.953 20.7468C18.6643 20.7407 18.375 20.7391 18.0863 20.7484C18.0858 21.2221 18.0915 21.6963 18.0822 22.17C17.791 22.1731 17.4992 22.1705 17.2079 22.1725C17.19 21.6963 17.2033 21.2195 17.1992 20.7427C16.695 20.7407 16.1903 20.7453 15.6861 20.7401C15.5361 20.4529 15.3124 20.2151 15.1405 19.9423C14.8932 19.5338 14.5764 19.1736 14.3301 18.7647C14.2575 18.629 14.1853 18.4919 14.0896 18.3706C14.0614 18.3156 14.0036 18.3043 13.9483 18.3085C13.827 18.44 13.7486 18.6028 13.6657 18.7595C13.4492 19.0837 13.227 19.4064 12.987 19.7136C12.9225 19.7306 12.8923 19.7727 12.8969 19.8395C12.8912 19.9294 12.8109 19.9875 12.7663 20.0594C12.6077 20.2808 12.4372 20.4971 12.3092 20.7391C11.8066 20.7463 11.3039 20.7401 10.8007 20.7427C10.7966 21.2195 10.8094 21.6958 10.792 22.172C10.5079 22.171 10.2238 22.1715 9.93973 22.172C9.9085 21.6963 9.93051 21.219 9.92437 20.7422C9.66792 20.7448 9.41146 20.7386 9.15501 20.7422C9.13351 20.7484 9.08949 20.7602 9.06799 20.7663L9.02653 20.7797C9.01117 21.2025 9.03932 21.6259 9.01782 22.0487C8.77366 22.0616 8.52898 22.0616 8.28532 22.0487C8.25922 21.6228 8.28993 21.1964 8.27201 20.7705C8.25051 20.7663 8.207 20.7576 8.1855 20.7535L8.14046 20.7478C7.58558 20.7319 7.03019 20.7525 6.47479 20.7381C6.4922 20.6831 6.51318 20.6307 6.53878 20.5798C7.18938 19.6915 7.79596 18.7714 8.44298 17.8805C8.68203 17.5414 8.89907 17.1833 9.17088 16.8694C9.23538 16.8514 9.26506 16.8098 9.25943 16.7435C9.27223 16.6407 9.36539 16.5693 9.41453 16.4825C9.59676 16.2549 9.71962 15.9775 9.93973 15.7827C10.0037 15.7642 10.0329 15.7216 10.0267 15.6553C10.0733 15.4765 10.2197 15.3399 10.3201 15.1878C10.5509 14.8842 10.749 14.5579 10.9824 14.2563C11.0495 14.188 11.05 14.0744 10.9901 14.0015C10.6451 13.5036 10.2888 13.0145 9.9515 12.5115C9.94638 12.4936 9.93614 12.4571 9.93102 12.4391C9.92949 12.3713 9.89519 12.3333 9.82865 12.324C9.71296 12.2156 9.63669 12.0733 9.54814 11.9433C9.29731 11.5821 9.05161 11.2168 8.78594 10.8664C8.45322 10.3455 8.07443 9.85637 7.73249 9.34208C7.31377 8.78258 6.95238 8.18044 6.5137 7.63738C6.51728 7.58395 6.52035 7.53051 6.52393 7.47708C7.06602 7.49147 7.60861 7.46681 8.1507 7.48993C7.62653 7.55107 7.09366 7.45191 6.57256 7.54644C7.02609 7.59782 7.48371 7.5598 7.93878 7.5747C8.0473 7.57007 8.24795 7.58446 8.25 7.42981C8.27201 6.92889 8.24181 6.42641 8.26075 5.92497C8.51925 5.91624 8.77775 5.91624 9.03676 5.92446C9.04854 6.39816 9.03472 6.87186 9.03984 7.34556C9.04496 7.42314 9.03677 7.54798 9.14068 7.55928C9.41044 7.59217 9.68481 7.57778 9.95355 7.54593C9.68993 7.4853 9.41863 7.52281 9.15194 7.50328C9.09358 7.46989 9.10638 7.39693 9.10075 7.34145C9.09563 6.86569 9.12327 6.38891 9.08642 5.91418Z" fill="#E58E31"/>
<path opacity="0.49" d="M4.42065 6.13927C4.3843 6.04509 4.41553 6.00465 4.51535 6.01744C4.51535 6.08297 4.48361 6.1234 4.42065 6.13927Z" fill="#714517"/>
<path opacity="0.55" d="M0.779053 9.57431C0.879382 9.17254 1.01554 8.77488 1.22746 8.41729C1.11945 8.81701 0.977663 9.21107 0.779053 9.57431Z" fill="#7D4C1A"/>
<path opacity="0.52" d="M27.2521 9.62568C27.4543 9.95861 27.5111 10.3491 27.6032 10.721C27.6815 11.0591 27.7788 11.3941 27.8131 11.7404C27.8264 11.8436 27.852 11.9443 27.8842 12.043C27.8904 12.1442 27.8868 12.2459 27.8858 12.3471C27.7578 12.0466 27.7491 11.7152 27.6764 11.3997C27.6186 11.0026 27.4988 10.6193 27.4189 10.2273C27.4348 10.1502 27.4323 10.0521 27.3509 10.0136C27.3161 9.88462 27.2838 9.75515 27.2521 9.62568Z" fill="#764819"/>
<path opacity="0.71" d="M27.3509 10.0136C27.4323 10.052 27.4349 10.1497 27.419 10.2265C27.3305 10.1866 27.3438 10.0939 27.3509 10.0136Z" fill="#A26323"/>
<path opacity="0.65" d="M0.567171 10.1291C0.588158 10.1224 0.631157 10.1101 0.652656 10.104C0.669548 10.1874 0.638835 10.2269 0.560517 10.2228L0.549255 10.1772L0.567171 10.1291Z" fill="#955B20"/>
<path opacity="0.65" d="M0.464767 17.5039C0.565096 17.5228 0.589666 17.6365 0.573286 17.723C0.477052 17.6979 0.454017 17.5894 0.464767 17.5039Z" fill="#955B20"/>
<path opacity="0.31" d="M0.327089 11.26C0.324018 10.887 0.434073 10.5279 0.549246 10.1775L0.560508 10.2232C0.559484 10.2915 0.556413 10.3594 0.551806 10.4277C0.501129 10.5083 0.464274 10.5988 0.475535 10.6964C0.464274 10.758 0.453012 10.8197 0.442263 10.8819C0.383908 10.9574 0.329137 11.0452 0.340398 11.1459C0.339886 11.1644 0.338351 11.2025 0.337839 11.2209L0.327089 11.26Z" fill="#482B0F"/>
<path opacity="0.66" d="M0.475546 10.6964C0.464285 10.5988 0.50114 10.5083 0.551816 10.4277C0.554376 10.5207 0.576387 10.645 0.475546 10.6964Z" fill="#975C1F"/>
<path opacity="0.27" d="M25.9192 10.5623C26.017 10.5628 26.0415 10.6073 25.9919 10.6959C25.9294 10.6718 25.9054 10.6273 25.9192 10.5623Z" fill="#3C250C"/>
<path opacity="0.56" d="M1.6907 11.9104C1.8069 11.5225 1.80588 11.094 2.01063 10.737C1.95842 11.1362 1.82123 11.5189 1.77824 11.9197C1.75418 12.1442 1.68763 12.3615 1.66562 12.5866C1.63491 12.9899 1.64566 13.3999 1.55198 13.796C1.531 13.5078 1.50489 13.2113 1.56273 12.9267C1.59498 12.8121 1.62416 12.6965 1.63337 12.5778C1.64464 12.3548 1.61904 12.1262 1.6907 11.9104Z" fill="#7E4D1C"/>
<path opacity="0.69" d="M0.34041 11.1459C0.329148 11.0452 0.38392 10.9574 0.442275 10.8819C0.478106 10.9805 0.47094 11.1295 0.34041 11.1459Z" fill="#9D5F21"/>
<path opacity="0.72" d="M0.327059 11.26L0.337809 11.2209C0.362891 11.5477 0.27843 11.8668 0.203695 12.1817C0.204207 12.0846 0.198065 11.988 0.19397 11.8914C0.200112 11.819 0.205743 11.7471 0.214957 11.6751C0.239527 11.5626 0.271776 11.4516 0.303001 11.3407C0.309143 11.3206 0.320917 11.28 0.327059 11.26Z" fill="#A46422"/>
<path opacity="0.37" d="M0.215027 11.6751C0.224753 11.559 0.26212 11.4486 0.303071 11.3407C0.271846 11.4516 0.239597 11.5626 0.215027 11.6751Z" fill="#533212"/>
<path opacity="0.49" d="M26.2289 11.7013C26.4126 11.9048 26.345 12.1904 26.3686 12.4391C26.386 12.5316 26.4116 12.6225 26.4346 12.7145C26.4566 12.8059 26.4623 12.9005 26.471 12.9945C26.4459 12.9945 26.3957 12.9955 26.3706 12.996C26.342 12.7479 26.3512 12.4951 26.2954 12.25C26.2529 12.0702 26.2278 11.8863 26.2289 11.7013Z" fill="#704318"/>
<path opacity="0.24" d="M27.8132 11.7404C27.8383 11.8406 27.8674 11.9407 27.8843 12.043C27.8521 11.9443 27.8265 11.8436 27.8132 11.7404Z" fill="#37210B"/>
<path opacity="0.32" d="M0.11725 12.36C0.0993341 12.1981 0.130559 12.0394 0.194032 11.8914C0.198127 11.988 0.20427 12.0846 0.203758 12.1817C0.18533 12.2454 0.149499 12.3024 0.11725 12.36Z" fill="#482C0F"/>
<path opacity="0.59" d="M9.82864 12.324C9.89518 12.3332 9.92948 12.3711 9.93101 12.4387C9.83324 12.4561 9.79895 12.4177 9.82864 12.324Z" fill="#86531D"/>
<path opacity="0.53" d="M18.0663 12.4371C18.0679 12.3696 18.1022 12.3317 18.1692 12.3235C18.1974 12.4182 18.1631 12.4561 18.0663 12.4371Z" fill="#794B1B"/>
<path opacity="0.77" d="M26.3686 12.4391C26.3926 12.4391 26.4408 12.4391 26.4648 12.4391C26.4551 12.5311 26.4449 12.6225 26.4346 12.7145C26.4116 12.6225 26.386 12.5316 26.3686 12.4391Z" fill="#AE6B25"/>
<path opacity="0.79" d="M1.56277 12.9267C1.56174 12.8126 1.47779 12.6235 1.63341 12.5778C1.62419 12.6965 1.59502 12.8121 1.56277 12.9267Z" fill="#B46E26"/>
<path opacity="0.25" d="M0 12.8845C0.0271298 12.8866 0.0813893 12.8912 0.108519 12.8938C0.108007 12.9971 0.108007 13.1008 0.107495 13.2046C0.0808774 13.2077 0.0271298 13.2144 0 13.2175V12.8845Z" fill="#38220C"/>
<path opacity="0.25" d="M0 14.9453C0.0271298 14.9458 0.0808774 14.9479 0.108007 14.9489C0.108519 15.0686 0.108007 15.1888 0.108007 15.309C0.0808774 15.3085 0.0271298 15.3075 0 15.3075V14.9453Z" fill="#38220C"/>
<path opacity="0.27" d="M27.892 15.2073C27.9191 15.2068 27.9728 15.2063 28 15.2058V15.5284C27.9728 15.5259 27.9186 15.5217 27.8914 15.5197C27.8909 15.4154 27.8914 15.3111 27.892 15.2073Z" fill="#3E250D"/>
<path opacity="0.73" d="M9.93972 15.7823C9.89928 15.6906 9.92795 15.6482 10.0267 15.6553C10.0329 15.7214 10.0037 15.7638 9.93972 15.7823Z" fill="#A76823"/>
<path opacity="0.64" d="M26.2304 16.4178C26.2396 16.2873 26.2821 16.1634 26.3277 16.0422C26.3502 16.1706 26.3527 16.3022 26.3507 16.4327C26.3205 16.4291 26.2606 16.4214 26.2304 16.4178Z" fill="#92591F"/>
<path opacity="0.21" d="M27.8173 16.4198C27.8101 16.3284 27.784 16.2061 27.8894 16.1599C27.891 16.2513 27.891 16.3535 27.8173 16.4198Z" fill="#301D0A"/>
<path opacity="0.4" d="M0.223176 16.4173C0.242628 16.465 0.261055 16.5133 0.279483 16.5621C0.285626 16.6669 0.28409 16.7718 0.286138 16.8766C0.23239 16.7291 0.208843 16.574 0.223176 16.4173Z" fill="#5A3713"/>
<path opacity="0.31" d="M1.82484 16.4193C1.86528 16.5621 1.88217 16.7111 1.87705 16.8601C1.84378 16.7846 1.80795 16.7096 1.79156 16.6284C1.80129 16.5585 1.81204 16.4887 1.82484 16.4193Z" fill="#452A0F"/>
<path opacity="0.69" d="M26.2135 16.633C26.2176 16.5611 26.2232 16.4892 26.2304 16.4178C26.2887 16.6695 26.2012 16.9151 26.1413 17.1561C26.0768 17.3883 26.0594 17.6457 25.9058 17.8419C25.9063 17.77 25.9063 17.6981 25.9043 17.6267C25.9867 17.6349 26.022 17.5969 26.0113 17.5121C26.0056 17.4448 26.0005 17.378 25.9964 17.3112C26.0814 17.2773 26.1295 17.1817 26.1131 17.0923C26.1101 17.0281 26.1065 16.9644 26.1029 16.9002C26.1945 16.8442 26.2165 16.7327 26.2135 16.633Z" fill="#9D6021"/>
<path opacity="0.45" d="M0.27948 16.5621C0.363941 16.8699 0.440723 17.1848 0.464781 17.5039C0.454032 17.5897 0.477067 17.6986 0.573303 17.7238C0.570231 17.8096 0.570231 17.8954 0.570231 17.9817C0.433557 17.6256 0.345001 17.2532 0.286134 16.8766C0.284087 16.7718 0.285623 16.6669 0.27948 16.5621Z" fill="#663E15"/>
<path opacity="0.34" d="M26.103 16.9002C26.083 16.799 26.0979 16.6669 26.2135 16.633C26.2166 16.7327 26.1946 16.8442 26.103 16.9002Z" fill="#4D2F10"/>
<path opacity="0.67" d="M9.17087 16.8689C9.13095 16.7773 9.16064 16.7353 9.25943 16.7435C9.26506 16.8095 9.23537 16.851 9.17087 16.8689Z" fill="#995F20"/>
<path opacity="0.34" d="M25.9965 17.3104C25.9765 17.2219 26.0144 17.1103 26.1132 17.0924C26.1296 17.1814 26.0815 17.2766 25.9965 17.3104Z" fill="#4D2F11"/>
<path opacity="0.32" d="M25.9043 17.6263C25.8951 17.5423 25.9309 17.5044 26.0113 17.5121C26.022 17.5966 25.9867 17.6344 25.9043 17.6263Z" fill="#492D10"/>
<path opacity="0.3" d="M0.569696 18.0629C0.655693 18.0664 0.685382 18.113 0.658764 18.2026C0.584541 18.1847 0.555364 18.1376 0.569696 18.0629Z" fill="#43290E"/>
<path opacity="0.46" d="M13.6658 18.7595C13.7487 18.6028 13.827 18.44 13.9483 18.3085C14.0036 18.3043 14.0615 18.3156 14.0896 18.3706C14.1853 18.4919 14.2575 18.629 14.3302 18.7647C14.1746 18.6876 14.1239 18.4955 13.9765 18.4148C13.8756 18.5319 13.7978 18.6727 13.6658 18.7595Z" fill="#694116"/>
<path opacity="0.41" d="M27.1313 18.8782C27.1057 18.7983 27.1334 18.7476 27.2137 18.7262C27.2383 18.805 27.2106 18.8562 27.1313 18.8782Z" fill="#5F3914"/>
<path opacity="0.53" d="M12.8969 19.839C12.8923 19.7725 12.9225 19.7305 12.987 19.7136C13.0254 19.8058 12.9952 19.8477 12.8969 19.839Z" fill="#7A4B1A"/>
<path opacity="0.4" d="M20.9299 19.879C21.0271 19.8668 21.0594 19.9072 21.0261 20.0009C20.9606 19.9865 20.9283 19.9461 20.9299 19.879Z" fill="#5B3812"/>
<path opacity="0.69" d="M1.32726 19.9715C1.40763 19.9797 1.44295 20.0232 1.43322 20.1016C1.34978 20.1031 1.31446 20.0596 1.32726 19.9715Z" fill="#9D6021"/>
<path opacity="0.4" d="M1.4266 20.2819C1.50901 20.2747 1.54638 20.3156 1.53972 20.4037C1.45731 20.4011 1.41994 20.3607 1.4266 20.2819Z" fill="#5C3813"/>
<path opacity="0.46" d="M8.1405 20.7478L8.18555 20.7535C8.17582 21.0628 8.16712 21.3721 8.16763 21.6814C8.1707 21.8247 8.16814 21.9742 8.22548 22.1088C8.4763 22.2167 8.75988 22.1535 9.02452 22.1612C9.088 21.6983 9.02708 21.2303 9.06803 20.7663C9.08953 20.7602 9.13356 20.7484 9.15505 20.7422C9.14891 21.2215 9.15966 21.7014 9.14686 22.1808C8.81465 22.1915 8.48193 22.191 8.14972 22.1869C8.15074 21.7071 8.16098 21.2272 8.1405 20.7478Z" fill="#674016"/>
<path opacity="0.81" d="M8.18548 20.7535C8.20698 20.7576 8.25049 20.7663 8.27199 20.7705C8.2899 21.1964 8.25919 21.6228 8.2853 22.0487C8.52895 22.0616 8.77363 22.0616 9.0178 22.0487C9.0393 21.6259 9.01115 21.2025 9.0265 20.7797L9.06796 20.7663C9.02701 21.2303 9.08793 21.6983 9.02445 22.1612C8.75981 22.1535 8.47623 22.2167 8.22541 22.1088C8.16808 21.9742 8.17063 21.8247 8.16756 21.6814C8.16705 21.3721 8.17575 21.0628 8.18548 20.7535Z" fill="#B87227"/>
<path opacity="0.75" d="M19.7228 20.7586C19.754 20.7566 19.816 20.752 19.8472 20.7494C19.8344 21.2241 19.8482 21.6994 19.838 22.1741C19.5319 22.1823 19.2253 22.1895 18.9197 22.1715C18.9309 22.151 18.953 22.1099 18.9637 22.0893C19.2115 22.0611 19.4613 22.0729 19.7105 22.0729C19.7443 21.6356 19.7233 21.1969 19.7228 20.7586Z" fill="#AA6A24"/>
<path opacity="0.49" d="M23.4856 22.1875C23.4841 22.1215 23.5153 22.0805 23.5793 22.0641C23.6162 22.1578 23.585 22.1988 23.4856 22.1875Z" fill="#704518"/>
<path opacity="0.42" d="M8.28018 25.1709C8.3457 25.1643 8.38921 25.1924 8.40969 25.2564C8.31857 25.2979 8.27557 25.2697 8.28018 25.1709Z" fill="#5F3A15"/>
<path opacity="0.61" d="M8.70508 25.3754C8.78135 25.3657 8.81769 25.3964 8.81513 25.4675C8.72555 25.4972 8.6887 25.4665 8.70508 25.3754Z" fill="#8B551E"/>
<path opacity="0.51" d="M18.2548 25.8383C18.5972 25.6611 18.9586 25.5259 19.319 25.3913C19.2007 25.5285 19.0216 25.5809 18.8629 25.6534C18.6653 25.7289 18.4708 25.8347 18.2548 25.8383Z" fill="#744718"/>
<path opacity="0.52" d="M10.1271 25.9426C10.1947 25.9324 10.2366 25.9605 10.253 26.0271C10.1629 26.068 10.1215 26.0399 10.1271 25.9426Z" fill="#774819"/>
<path opacity="0.46" d="M17.748 26.0296C17.7633 25.9626 17.8048 25.9339 17.8724 25.9426C17.8795 26.0399 17.8381 26.0685 17.748 26.0296Z" fill="#6A4116"/>
<path opacity="0.67" d="M19.6318 26.9215C19.6589 26.8422 19.7116 26.8166 19.7905 26.8453C19.7628 26.9226 19.7096 26.9482 19.6318 26.9215Z" fill="#995D20"/>
</svg>
