<svg width="17" height="19" viewBox="0 0 17 19" fill="none" xmlns="http://www.w3.org/2000/svg">
<path d="M13.2485 19C10.1764 19 7.10875 19 4.03661 19C4.0231 18.991 4.00508 18.9775 3.99157 18.9775C3.19425 18.8108 2.70325 18.2838 2.62667 17.4774C2.53207 16.4504 2.45549 15.4233 2.36991 14.3963C2.2663 13.162 2.16269 11.9233 2.05909 10.689C1.969 9.58537 1.8744 8.48174 1.78431 7.37361C1.74827 6.91414 1.71223 6.45917 1.67169 5.99069C6.32045 5.99069 10.9602 5.99069 15.5999 5.99069C15.6044 6.01772 15.609 6.03123 15.609 6.04925C15.4783 7.63037 15.3477 9.21599 15.2171 10.7971C15.0369 12.9593 14.8567 15.1215 14.681 17.2837C14.6405 17.7567 14.5278 18.1892 14.1765 18.536C13.9152 18.7883 13.5954 18.9144 13.2485 19ZM6.48712 16.3288C6.45108 15.7612 6.42856 15.3242 6.40153 14.8873C6.31144 13.4053 6.21684 11.9233 6.12675 10.4412C6.06819 9.48627 6.00963 8.52679 5.94657 7.57181C5.93305 7.37361 5.84296 7.21595 5.66278 7.12135C5.2934 6.92765 4.86095 7.19342 4.87447 7.61686C4.88798 8.08533 4.92402 8.54931 4.95555 9.01779C5.04564 10.4773 5.14024 11.9368 5.23033 13.3918C5.28889 14.3648 5.35196 15.3423 5.41052 16.3153C5.42403 16.554 5.54566 16.7207 5.77089 16.8063C6.15378 16.9459 6.50063 16.6531 6.48712 16.3288ZM12.4197 7.64839C12.4332 7.33307 12.2305 7.0763 11.9152 7.05828C11.6179 7.04027 11.3611 7.27451 11.3431 7.58532C11.28 8.57183 11.2215 9.55834 11.1584 10.5449C11.0818 11.8016 11.0007 13.0584 10.9197 14.3152C10.8791 14.9684 10.8341 15.617 10.8025 16.2702C10.789 16.59 11.0233 16.8333 11.3251 16.8378C11.6224 16.8423 11.8521 16.6261 11.8791 16.3108C11.8926 16.1125 11.9062 15.9143 11.9152 15.7206C11.9918 14.4819 12.0683 13.2431 12.1449 12.0043C12.235 10.5719 12.3251 9.13941 12.4197 7.64839ZM9.18087 11.9503C9.18087 10.5494 9.18087 9.14392 9.18087 7.74298C9.18087 7.31054 8.98267 7.05828 8.64032 7.06279C8.29797 7.06279 8.09977 7.31505 8.09977 7.74749C8.09977 10.5539 8.09977 13.3602 8.09977 16.1666C8.09977 16.2252 8.09526 16.2882 8.10427 16.3468C8.1313 16.5765 8.24842 16.7387 8.46464 16.8153C8.83402 16.9459 9.17637 16.6756 9.18087 16.2567C9.18538 14.8152 9.18087 13.3828 9.18087 11.9503Z" fill="black"/>
<path d="M6.48712 16.3288C6.50064 16.6531 6.15378 16.9459 5.76639 16.8062C5.54115 16.7252 5.41953 16.554 5.40602 16.3152C5.34295 15.3422 5.28439 14.3647 5.22583 13.3917C5.13574 11.9323 5.04114 10.4728 4.95105 9.01778C4.92402 8.5493 4.88348 8.08532 4.86997 7.61684C4.85645 7.1889 5.2889 6.92313 5.65827 7.12134C5.83846 7.21593 5.92855 7.37359 5.94207 7.5718C6.00513 8.52677 6.06369 9.48625 6.12225 10.4412C6.21685 11.9232 6.30694 13.4053 6.39703 14.8873C6.42856 15.3242 6.45109 15.7612 6.48712 16.3288Z" fill="white"/>
<path d="M12.4197 7.64839C12.3251 9.13491 12.235 10.5719 12.1449 12.0089C12.0683 13.2476 11.9917 14.4864 11.9152 15.7252C11.9017 15.9234 11.8926 16.1216 11.8791 16.3153C11.8566 16.6261 11.6224 16.8468 11.3251 16.8423C11.0233 16.8333 10.789 16.5945 10.8025 16.2747C10.8341 15.6215 10.8791 14.9684 10.9196 14.3197C10.9962 13.0629 11.0773 11.8061 11.1584 10.5494C11.2215 9.56285 11.28 8.57634 11.3431 7.58983C11.3611 7.27901 11.6179 7.04928 11.9152 7.06279C12.2305 7.07631 12.4332 7.33307 12.4197 7.64839Z" fill="white"/>
<path d="M9.1809 11.9503C9.1809 13.3827 9.1809 14.8152 9.1809 16.2476C9.1809 16.6711 8.83404 16.9369 8.46467 16.8062C8.24394 16.7296 8.12682 16.563 8.1043 16.3377C8.09979 16.2792 8.09979 16.2161 8.09979 16.1576C8.09979 13.3512 8.09979 10.5448 8.09979 7.73844C8.09979 7.306 8.298 7.05374 8.64035 7.05374C8.9827 7.05374 9.1809 7.306 9.1809 7.73394C9.1809 9.14388 9.1809 10.5448 9.1809 11.9503Z" fill="white"/>
<path d="M4.87898 2.73835C4.87898 2.48609 4.85646 2.25636 4.88349 2.03563C4.9871 1.18426 5.62225 0.594157 6.48263 0.585148C7.9196 0.571634 9.36107 0.571634 10.798 0.585148C11.7215 0.594157 12.3927 1.28787 12.4152 2.21582C12.4197 2.38249 12.4152 2.54916 12.4152 2.73835C12.4918 2.73835 12.5548 2.73835 12.6179 2.73835C13.6134 2.73835 14.6089 2.73385 15.6045 2.73835C16.145 2.73835 16.5639 3.04917 16.6946 3.53567C16.8567 4.13027 16.4874 4.73389 15.8837 4.86453C15.7756 4.88705 15.6585 4.89606 15.5459 4.89606C10.9422 4.89606 6.33397 4.89606 1.73026 4.89606C1.1762 4.89606 0.766277 4.63479 0.61312 4.18883C0.360862 3.45458 0.865378 2.74736 1.65819 2.74285C2.65371 2.73385 3.64923 2.74285 4.64474 2.74285C4.71231 2.73835 4.77538 2.73835 4.87898 2.73835ZM5.94658 2.72934C7.75292 2.72934 9.54126 2.72934 11.3431 2.72934C11.3431 2.55366 11.3476 2.38699 11.3431 2.22032C11.3341 1.88247 11.1134 1.66625 10.771 1.65724C10.5728 1.65274 10.3746 1.65724 10.1764 1.65724C8.96466 1.65724 7.75743 1.65724 6.54569 1.65724C6.15829 1.65724 5.94658 1.87347 5.94207 2.25636C5.94207 2.41402 5.94658 2.56267 5.94658 2.72934Z" fill="black"/>
<path d="M5.94656 2.72932C5.94656 2.55815 5.94656 2.4095 5.94656 2.26084C5.95107 1.87795 6.16279 1.66173 6.55018 1.66173C7.76192 1.66173 8.96916 1.66173 10.1809 1.66173C10.3791 1.66173 10.5773 1.65723 10.7755 1.66173C11.1179 1.66624 11.3386 1.88696 11.3476 2.22481C11.3521 2.39148 11.3476 2.55815 11.3476 2.73383C9.53674 2.72932 7.74841 2.72932 5.94656 2.72932Z" fill="white"/>
</svg>
