<svg width="28" height="29" viewBox="0 0 28 29" fill="none" xmlns="http://www.w3.org/2000/svg">
<mask id="mask0_940:2000" style="mask-type:alpha" maskUnits="userSpaceOnUse" x="0" y="0" width="28" height="29">
<rect width="28" height="29" fill="#C4C4C4"/>
</mask>
<g mask="url(#mask0_940:2000)">
<path d="M11.2774 1.25907C14.3085 0.673039 17.5335 1.08019 20.2913 2.4912C23.1433 3.93024 25.4791 6.37981 26.781 9.31263C27.9755 11.9544 28.2833 14.9713 27.7432 17.8147C26.9509 22.0264 24.1068 25.7695 20.2953 27.6784C19.0013 28.3299 17.6078 28.7931 16.1745 29C16.1878 25.7201 16.1559 22.4402 16.1918 19.1617C17.2787 19.1056 18.3669 19.207 19.4539 19.143C19.6649 17.7987 19.8494 16.4518 20.0856 15.1128C18.785 15.0474 17.4791 15.1088 16.1758 15.0835C16.1984 14.0329 16.1227 12.977 16.2382 11.9304C16.3311 11.1254 16.9814 10.4486 17.7764 10.3178C18.5806 10.1883 19.4021 10.2591 20.213 10.2524C20.2594 9.10171 20.2117 7.94834 20.2369 6.79631C18.2608 6.49195 16.0697 6.16623 14.2302 7.17142C12.704 7.98705 11.8839 9.73046 11.8268 11.4191C11.8029 12.6392 11.8228 13.862 11.8175 15.0835C10.6297 15.0888 9.44191 15.0848 8.25412 15.0848C8.2528 16.4384 8.25677 17.792 8.25147 19.1443C9.4366 19.1643 10.6231 19.1229 11.8082 19.167C11.8294 22.4429 11.8082 25.7201 11.8188 28.9973C8.34437 28.4914 5.11941 26.5518 2.96413 23.7725C1.03314 21.3055 -0.052461 18.1685 0.00195186 15.0247C-0.0312267 11.4752 1.39545 7.95502 3.8281 5.39331C5.80422 3.28147 8.44656 1.81306 11.2774 1.25907Z" fill="white"/>
</g>
</svg>
