<svg width="20" height="20" viewBox="0 0 20 20" fill="none" xmlns="http://www.w3.org/2000/svg">
<path d="M9.873 2.3365e-05C7.92027 2.3375e-05 6.01138 0.57909 4.38776 1.66399C2.76413 2.7489 1.49868 4.29091 0.751446 6.09502C0.00421166 7.89913 -0.191248 9.88432 0.189784 11.7995C0.570817 13.7147 1.51123 15.4739 2.89209 16.8546C4.27296 18.2354 6.03225 19.1756 7.94749 19.5564C9.86273 19.9373 11.8479 19.7416 13.6519 18.9942C15.456 18.2468 16.9979 16.9812 18.0826 15.3574C19.1673 13.7337 19.7462 11.8248 19.746 9.87202C19.746 8.57548 19.4906 7.29164 18.9945 6.09379C18.4983 4.89594 17.7711 3.80755 16.8543 2.89076C15.9375 1.97397 14.8491 1.24673 13.6512 0.750561C12.4534 0.254396 11.1695 -0.000976562 9.873 -0.000976562V2.3365e-05ZM6.17 9.87202C6.17 9.14023 6.38701 8.42488 6.79357 7.81641C7.20013 7.20795 7.77799 6.73371 8.45408 6.45367C9.13016 6.17363 9.87411 6.10035 10.5918 6.24312C11.3096 6.38588 11.9688 6.73827 12.4863 7.25573C13.0038 7.77318 13.3561 8.43246 13.4989 9.15019C13.6417 9.86792 13.5684 10.6119 13.2884 11.288C13.0083 11.964 12.5341 12.5419 11.9256 12.9485C11.3172 13.355 10.6018 13.572 9.87 13.572C8.8887 13.572 7.94759 13.1822 7.25371 12.4883C6.55982 11.7944 6.17 10.8533 6.17 9.87202V9.87202ZM17.855 13.179L14.434 11.762C14.9339 10.5519 14.9339 9.1931 14.434 7.98302L17.855 6.56602C18.7296 8.68361 18.7296 11.0614 17.855 13.179V13.179ZM13.18 1.89002L11.762 5.31102C10.5519 4.81127 9.1931 4.81127 7.983 5.31102L6.566 1.89002C8.68359 1.01546 11.0614 1.01546 13.179 1.89002H13.18ZM1.89 6.56702L5.311 7.98402C4.81114 9.1941 4.81114 10.5529 5.311 11.763L1.89 13.18C1.01544 11.0624 1.01544 8.68461 1.89 6.56702V6.56702ZM6.566 17.857L7.983 14.436C9.19308 14.9359 10.5519 14.9359 11.762 14.436L13.179 17.857C11.0614 18.7316 8.68359 18.7316 6.566 17.857V17.857Z" fill="black"/>
</svg>
