<svg width="29" height="29" viewBox="0 0 29 29" fill="none" xmlns="http://www.w3.org/2000/svg">
<mask id="mask0_940:2002" style="mask-type:alpha" maskUnits="userSpaceOnUse" x="0" y="0" width="29" height="29">
<rect width="29" height="29" fill="#C4C4C4"/>
</mask>
<g mask="url(#mask0_940:2002)">
<path d="M24.0002 8.18819V20.0632C24.0032 20.2199 23.9745 20.3757 23.9159 20.5211C23.8574 20.6665 23.77 20.7986 23.6592 20.9095C23.5484 21.0204 23.4164 21.1078 23.271 21.1666C23.1257 21.2253 22.9699 21.254 22.8132 21.2512H21.6252V10.4732L14.5002 15.5902L7.37519 10.4732V21.2502H6.18819C6.03145 21.2532 5.87571 21.2245 5.73029 21.1659C5.58487 21.1074 5.45276 21.02 5.34186 20.9092C5.23096 20.7984 5.14354 20.6664 5.08483 20.521C5.02613 20.3757 4.99734 20.2199 5.00019 20.0632V8.18819C4.99735 8.0314 5.02613 7.87564 5.08482 7.73022C5.14352 7.5848 5.23092 7.45269 5.34181 7.34181C5.4527 7.23092 5.5848 7.14352 5.73022 7.08482C5.87564 7.02613 6.0314 6.99734 6.18819 7.00019H6.58819L14.5002 12.7402L22.4172 7.00019H22.8172C22.9736 6.99802 23.1288 7.02731 23.2736 7.0863C23.4185 7.1453 23.55 7.23281 23.6603 7.34363C23.7707 7.45445 23.8576 7.58632 23.916 7.7314C23.9744 7.87649 24.003 8.03183 24.0002 8.18819V8.18819Z" fill="black"/>
</g>
</svg>
