<svg width="23" height="17" viewBox="0 0 23 17" fill="none" xmlns="http://www.w3.org/2000/svg">
<path d="M0 4.753H4.753V0H0V4.753ZM0 10.695H4.753V5.942H0V10.695ZM5.942 10.695H10.7V5.942H5.942V10.695ZM11.884 10.695H16.637V5.942H11.884V10.695ZM5.942 4.753H10.7V0H5.942V4.753ZM11.884 0V4.753H16.637V0H11.884ZM17.826 10.7H22.579V5.942H17.826V10.7ZM0 16.637H4.753V11.884H0V16.637ZM5.942 16.637H10.7V11.884H5.942V16.637ZM11.884 16.637H16.637V11.884H11.884V16.637ZM17.826 16.637H22.579V11.884H17.826V16.637ZM17.826 0V4.753H22.579V0H17.826Z" fill="black"/>
</svg>
