<svg width="33" height="33" viewBox="0 0 33 33" fill="none" xmlns="http://www.w3.org/2000/svg">
<path d="M20.045 16.0709C20.045 16.8569 19.8119 17.6252 19.3752 18.2788C18.9386 18.9323 18.3179 19.4416 17.5918 19.7424C16.8656 20.0432 16.0666 20.1219 15.2957 19.9686C14.5248 19.8152 13.8167 19.4367 13.2609 18.881C12.7052 18.3252 12.3267 17.6171 12.1733 16.8462C12.02 16.0753 12.0987 15.2763 12.3995 14.5501C12.7003 13.824 13.2096 13.2033 13.8632 12.7667C14.5167 12.33 15.285 12.0969 16.071 12.0969C17.125 12.0969 18.1358 12.5156 18.881 13.2609C19.6263 14.0062 20.045 15.017 20.045 16.0709V16.0709Z" stroke="black" stroke-width="3" stroke-linecap="round" stroke-linejoin="round"/>
<path d="M25.874 20.045C25.6977 20.4446 25.645 20.8878 25.7229 21.3175C25.8008 21.7472 26.0056 22.1438 26.311 22.456L26.39 22.535C26.6388 22.7806 26.8366 23.073 26.972 23.3953C27.1073 23.7176 27.1776 24.0635 27.1787 24.4131C27.1799 24.7627 27.1119 25.1091 26.9786 25.4323C26.8454 25.7555 26.6495 26.0491 26.4023 26.2963C26.1551 26.5435 25.8614 26.7394 25.5382 26.8726C25.215 27.0059 24.8687 27.0739 24.5191 27.0728C24.1695 27.0716 23.8236 27.0013 23.5013 26.866C23.1789 26.7306 22.8866 26.5328 22.641 26.284L22.562 26.205C22.2529 25.9036 21.8619 25.6997 21.4378 25.6189C21.0137 25.5381 20.5752 25.5838 20.1769 25.7505C19.7786 25.9171 19.4381 26.1973 19.1979 26.556C18.9577 26.9148 18.8283 27.3363 18.826 27.768V27.993C18.826 28.6958 18.5468 29.3699 18.0498 29.8669C17.5529 30.3638 16.8788 30.643 16.176 30.643C15.4732 30.643 14.7991 30.3638 14.3022 29.8669C13.8052 29.3699 13.526 28.6958 13.526 27.993V27.874C13.5156 27.4356 13.3736 27.0104 13.1184 26.6537C12.8632 26.297 12.5066 26.0254 12.095 25.874C11.6954 25.6977 11.2522 25.6451 10.8225 25.723C10.3928 25.8009 9.99624 26.0057 9.68399 26.311L9.60499 26.39C9.35942 26.6388 9.06705 26.8366 8.74473 26.972C8.42241 27.1073 8.07649 27.1776 7.7269 27.1788C7.37731 27.1799 7.03095 27.1119 6.70775 26.9786C6.38455 26.8454 6.09089 26.6495 5.8437 26.4023C5.5965 26.1551 5.40063 25.8615 5.26738 25.5383C5.13412 25.2151 5.06611 24.8687 5.06725 24.5191C5.06839 24.1695 5.13867 23.8236 5.27404 23.5013C5.4094 23.179 5.60718 22.8866 5.85599 22.641L5.93499 22.562C6.23644 22.2529 6.44028 21.862 6.5211 21.4379C6.60193 21.0137 6.55618 20.5752 6.38955 20.1769C6.22291 19.7786 5.94276 19.4381 5.58401 19.1979C5.22525 18.9577 4.80374 18.8284 4.37199 18.826H4.14899C3.44617 18.826 2.77213 18.5468 2.27516 18.0499C1.77819 17.5529 1.49899 16.8788 1.49899 16.176C1.49899 15.4732 1.77819 14.7992 2.27516 14.3022C2.77213 13.8052 3.44617 13.526 4.14899 13.526H4.26799C4.70644 13.5157 5.13163 13.3736 5.4883 13.1184C5.84498 12.8632 6.11664 12.5067 6.26799 12.095C6.44433 11.6955 6.49694 11.2523 6.41905 10.8225C6.34116 10.3928 6.13634 9.99627 5.83099 9.68402L5.75199 9.60502C5.4941 9.36163 5.28767 9.06896 5.14491 8.74436C5.00214 8.41975 4.92596 8.0698 4.92086 7.71523C4.91576 7.36065 4.98184 7.00866 5.11521 6.68008C5.24858 6.3515 5.44651 6.05302 5.69729 5.80231C5.94807 5.55159 6.24661 5.35374 6.57522 5.22046C6.90383 5.08718 7.25585 5.02119 7.61042 5.02638C7.96499 5.03158 8.31492 5.10786 8.63949 5.25071C8.96405 5.39355 9.25666 5.60007 9.49999 5.85802L9.57899 5.93702C9.89124 6.24237 10.2878 6.44719 10.7175 6.52508C11.1472 6.60297 11.5904 6.55036 11.99 6.37402H12.1C12.4918 6.20614 12.826 5.92737 13.0614 5.57203C13.2968 5.21669 13.4232 4.80027 13.425 4.37402V4.14902C13.425 3.4462 13.7042 2.77216 14.2012 2.27519C14.6981 1.77822 15.3722 1.49902 16.075 1.49902C16.7778 1.49902 17.4519 1.77822 17.9488 2.27519C18.4458 2.77216 18.725 3.4462 18.725 4.14902V4.26802C18.7273 4.69977 18.8567 5.12128 19.0969 5.48004C19.3371 5.83879 19.6776 6.11894 20.0759 6.28558C20.4742 6.45221 20.9127 6.49796 21.3368 6.41713C21.7609 6.33631 22.1519 6.13247 22.461 5.83102L22.54 5.75202C22.7823 5.48956 23.0751 5.27876 23.4008 5.13228C23.7266 4.9858 24.0786 4.90666 24.4357 4.89962C24.7928 4.89257 25.1476 4.95776 25.4789 5.09127C25.8102 5.22478 26.1111 5.42386 26.3635 5.67656C26.616 5.92926 26.8147 6.23036 26.9479 6.56179C27.081 6.89322 27.1459 7.24814 27.1384 7.60524C27.131 7.96234 27.0515 8.31426 26.9047 8.63986C26.7578 8.96547 26.5467 9.25804 26.284 9.50002L26.2 9.58002C25.8946 9.89227 25.6898 10.2888 25.6119 10.7185C25.534 11.1483 25.5867 11.5915 25.763 11.991V12.1C25.9309 12.4918 26.2096 12.826 26.565 13.0614C26.9203 13.2968 27.3367 13.4232 27.763 13.425H27.988C28.6908 13.425 29.3649 13.7042 29.8618 14.2012C30.3588 14.6982 30.638 15.3722 30.638 16.075C30.638 16.7778 30.3588 17.4519 29.8618 17.9489C29.3649 18.4458 28.6908 18.725 27.988 18.725H27.869C27.4427 18.7268 27.0263 18.8532 26.671 19.0886C26.3156 19.3241 26.0369 19.6582 25.869 20.05L25.874 20.045Z" stroke="black" stroke-width="3" stroke-linecap="round" stroke-linejoin="round"/>
</svg>
